<?xml version="1.0" encoding="utf-8"?>
<!-- Generator: Adobe Illustrator 24.1.1, SVG Export Plug-In . SVG Version: 6.00 Build 0)  -->
<svg version="1.1" xmlns="http://www.w3.org/2000/svg" xmlns:xlink="http://www.w3.org/1999/xlink" x="0px" y="0px"
	 viewBox="0 0 1366 772" style="enable-background:new 0 0 1366 772;" xml:space="preserve">
<style type="text/css">
	.st0{fill:#1C8C9A;}
	.st1{fill:#327789;}
	.st2{fill:#226389;}
	.st3{fill:url(#SVGID_1_);}
	.st4{fill:url(#SVGID_2_);}
	.st5{fill:url(#SVGID_3_);}
	.st6{fill:#2A729B;}
	.st7{fill:url(#SVGID_4_);}
	.st8{fill:url(#SVGID_5_);}
	.st9{fill:url(#SVGID_6_);}
	.st10{fill:url(#SVGID_7_);}
	.st11{fill:url(#SVGID_8_);}
	.st12{fill:url(#SVGID_9_);}
	.st13{fill:url(#SVGID_10_);}
	.st14{fill:#226B89;}
	.st15{fill:url(#SVGID_11_);}
	.st16{fill:url(#SVGID_12_);}
	.st17{fill:url(#SVGID_13_);}
	.st18{fill:#225089;}
	.st19{fill:url(#SVGID_14_);}
	.st20{fill:url(#SVGID_15_);}
	.st21{fill:url(#SVGID_16_);}
	.st22{fill:url(#SVGID_17_);}
	.st23{fill:url(#SVGID_18_);}
	.st24{fill:url(#SVGID_19_);}
	.st25{fill:url(#SVGID_20_);}
	.st26{fill:url(#SVGID_21_);}
	.st27{fill:url(#SVGID_22_);}
	.st28{fill:url(#SVGID_23_);}
	.st29{fill:url(#SVGID_24_);}
	.st30{fill:url(#SVGID_25_);}
	.st31{fill:url(#SVGID_26_);}
	.st32{fill:url(#SVGID_27_);}
	.st33{fill:url(#SVGID_28_);}
	.st34{fill:url(#SVGID_29_);}
	.st35{fill:url(#SVGID_30_);}
	.st36{fill:url(#SVGID_31_);}
	.st37{fill:url(#SVGID_32_);}
</style>
<g id="Layer_1">
</g>
<g id="Layer_2">
</g>
<g id="Layer_3">
	<g>
		<polygon class="st0" points="1365.5,205 1365.5,390.5 1310.89,262.97 		"/>
		<polygon class="st1" points="1153.12,205 1365.5,205 1310.89,262.97 		"/>
		<polygon class="st2" points="975.5,189.5 1153.12,204.1 1064.5,92.5 		"/>
		<polygon class="st1" points="1182.45,79.6 1064.5,92.5 1153.12,204.1 		"/>
		<linearGradient id="SVGID_1_" gradientUnits="userSpaceOnUse" x1="975.5" y1="116.5" x2="1042.5" y2="116.5">
			<stop  offset="2.645906e-03" style="stop-color:#228589;stop-opacity:0.9"/>
			<stop  offset="0.1486" style="stop-color:#129693;stop-opacity:0.9436"/>
			<stop  offset="0.3377" style="stop-color:#00A99D"/>
			<stop  offset="0.5952" style="stop-color:#00A99D"/>
			<stop  offset="0.873" style="stop-color:#22B573"/>
		</linearGradient>
		<polygon class="st3" points="1042.5,116.5 984.5,43.5 975.5,189.5 		"/>
		<linearGradient id="SVGID_2_" gradientUnits="userSpaceOnUse" x1="913.5" y1="102" x2="984.5" y2="102">
			<stop  offset="0" style="stop-color:#22B573"/>
			<stop  offset="0.2846" style="stop-color:#06AB96"/>
			<stop  offset="0.3377" style="stop-color:#00A99D"/>
			<stop  offset="0.5952" style="stop-color:#00A99D"/>
			<stop  offset="1" style="stop-color:#228589;stop-opacity:0.9"/>
		</linearGradient>
		<polygon class="st4" points="913.5,160.5 977.5,149.5 984.5,43.5 		"/>
		<linearGradient id="SVGID_3_" gradientUnits="userSpaceOnUse" x1="913.5" y1="91" x2="950.5" y2="91">
			<stop  offset="0" style="stop-color:#00A99D"/>
			<stop  offset="0.2672" style="stop-color:#21B574;stop-opacity:0.84"/>
			<stop  offset="0.5979" style="stop-color:#228589;stop-opacity:0.78"/>
			<stop  offset="0.8226" style="stop-color:#22A27C;stop-opacity:0.9029"/>
			<stop  offset="1" style="stop-color:#22B573"/>
		</linearGradient>
		<polygon class="st5" points="923.5,21.5 913.5,160.5 950.5,99.5 		"/>
		<polygon class="st0" points="1288.64,6 1182.45,80.1 1365.5,55.06 		"/>
		<polygon class="st6" points="1153.12,204.26 1365.5,55.06 1182.45,80.1 		"/>
		<polygon class="st2" points="1365.5,205.26 1365.5,55.06 1153.12,204.26 		"/>
		<linearGradient id="SVGID_4_" gradientUnits="userSpaceOnUse" x1="1220" y1="189" x2="1375" y2="189">
			<stop  offset="0" style="stop-color:#CCCCCC;stop-opacity:0.32"/>
			<stop  offset="1" style="stop-color:#CCCCCC;stop-opacity:0.05"/>
		</linearGradient>
		<polygon class="st7" points="1220,74 1220,74 1247,73 1375,261 1329,305 		"/>
		<linearGradient id="SVGID_5_" gradientUnits="userSpaceOnUse" x1="1086" y1="159.5" x2="1242" y2="159.5">
			<stop  offset="0" style="stop-color:#CCCCCC;stop-opacity:0.32"/>
			<stop  offset="1" style="stop-color:#CCCCCC;stop-opacity:0.05"/>
		</linearGradient>
		<polygon class="st8" points="1086,88.57 1086,88.57 1173,81 1242,238 1195,221 		"/>
	</g>
	<g>
		<polygon class="st0" points="-0.37,553.5 -0.37,368 52.11,495.53 		"/>
		<polygon class="st1" points="203.72,553.5 -0.37,553.5 52.11,495.53 		"/>
		<polygon class="st2" points="374.42,569 203.72,554.4 288.89,666 		"/>
		<polygon class="st1" points="175.54,678.9 288.89,666 203.72,554.4 		"/>
		
			<linearGradient id="SVGID_6_" gradientUnits="userSpaceOnUse" x1="166.0818" y1="908.5" x2="230.4686" y2="908.5" gradientTransform="matrix(-1 0 0 -1 540.5 1550.5)">
			<stop  offset="2.645906e-03" style="stop-color:#228589;stop-opacity:0.9"/>
			<stop  offset="0.1486" style="stop-color:#129693;stop-opacity:0.9436"/>
			<stop  offset="0.3377" style="stop-color:#00A99D"/>
			<stop  offset="0.5952" style="stop-color:#00A99D"/>
			<stop  offset="0.873" style="stop-color:#22B573"/>
		</linearGradient>
		<polygon class="st9" points="310.03,642 365.77,715 374.42,569 		"/>
		
			<linearGradient id="SVGID_7_" gradientUnits="userSpaceOnUse" x1="106.5" y1="894" x2="174.7308" y2="894" gradientTransform="matrix(-1 0 0 -1 540.5 1550.5)">
			<stop  offset="0" style="stop-color:#22B573"/>
			<stop  offset="0.2846" style="stop-color:#06AB96"/>
			<stop  offset="0.3377" style="stop-color:#00A99D"/>
			<stop  offset="0.5952" style="stop-color:#00A99D"/>
			<stop  offset="1" style="stop-color:#228589;stop-opacity:0.9"/>
		</linearGradient>
		<polygon class="st10" points="434,598 372.5,609 365.77,715 		"/>
		
			<linearGradient id="SVGID_8_" gradientUnits="userSpaceOnUse" x1="106.5" y1="883" x2="142.0569" y2="883" gradientTransform="matrix(-1 0 0 -1 540.5 1550.5)">
			<stop  offset="0" style="stop-color:#00A99D"/>
			<stop  offset="0.2672" style="stop-color:#21B574;stop-opacity:0.84"/>
			<stop  offset="0.5979" style="stop-color:#228589;stop-opacity:0.78"/>
			<stop  offset="0.8226" style="stop-color:#22A27C;stop-opacity:0.9029"/>
			<stop  offset="1" style="stop-color:#22B573"/>
		</linearGradient>
		<polygon class="st11" points="424.39,737 434,598 398.44,659 		"/>
		<polygon class="st0" points="73.49,752.5 175.54,678.4 -0.37,703.44 		"/>
		<polygon class="st6" points="203.72,554.24 -0.37,703.44 175.54,678.4 		"/>
		<polygon class="st2" points="-0.37,553.24 -0.37,703.44 203.72,554.24 		"/>
		
			<linearGradient id="SVGID_9_" gradientUnits="userSpaceOnUse" x1="401.0455" y1="981" x2="550" y2="981" gradientTransform="matrix(-1 0 0 -1 540.5 1550.5)">
			<stop  offset="0" style="stop-color:#CCCCCC;stop-opacity:0.32"/>
			<stop  offset="1" style="stop-color:#CCCCCC;stop-opacity:0.05"/>
		</linearGradient>
		<polygon class="st12" points="139.45,684.5 139.45,684.5 113.51,685.5 -9.5,497.5 34.71,453.5 		"/>
		
			<linearGradient id="SVGID_10_" gradientUnits="userSpaceOnUse" x1="272.2719" y1="951.5" x2="422.1874" y2="951.5" gradientTransform="matrix(-1 0 0 -1 540.5 1550.5)">
			<stop  offset="0" style="stop-color:#CCCCCC;stop-opacity:0.32"/>
			<stop  offset="1" style="stop-color:#CCCCCC;stop-opacity:0.05"/>
		</linearGradient>
		<polygon class="st13" points="268.23,669.93 268.23,669.93 184.62,677.5 118.31,520.5 163.48,537.5 		"/>
	</g>
	<g>
		<polygon class="st1" points="0.44,0 117.95,73.36 0.44,73.36 		"/>
		<polygon class="st2" points="149,128.37 117.95,73.36 0.44,73.36 		"/>
		<polygon class="st0" points="233.63,73.36 117.95,73.36 149,128.37 		"/>
		<polygon class="st14" points="317.65,5 233.63,73.36 369.41,98.92 		"/>
		<polygon class="st1" points="487.52,44.46 369.41,98.92 407.76,178.95 		"/>
		<polygon class="st6" points="0.44,173.39 0.44,73.36 149,128.37 		"/>
		<polygon class="st2" points="281.12,167.28 233.63,73.36 369.41,98.92 		"/>
		<polygon class="st1" points="149,128.37 281.12,167.28 233.63,73.36 		"/>
		<polygon class="st6" points="369.41,98.92 281.12,167.28 407.76,178.95 		"/>
		<polygon class="st2" points="487.52,44.46 515.38,100.87 559.98,191.17 407.76,178.95 		"/>
		<linearGradient id="SVGID_11_" gradientUnits="userSpaceOnUse" x1="515.5316" y1="145.8804" x2="594.0739" y2="145.8804">
			<stop  offset="2.645906e-03" style="stop-color:#228589;stop-opacity:0.9"/>
			<stop  offset="0.1486" style="stop-color:#129693;stop-opacity:0.9436"/>
			<stop  offset="0.3377" style="stop-color:#00A99D"/>
			<stop  offset="0.5952" style="stop-color:#00A99D"/>
			<stop  offset="0.873" style="stop-color:#22B573"/>
		</linearGradient>
		<polygon class="st15" points="594.07,106.7 515.53,100.59 559.98,191.17 		"/>
		<linearGradient id="SVGID_12_" gradientUnits="userSpaceOnUse" x1="567.1561" y1="140.0452" x2="606.251" y2="140.0452">
			<stop  offset="0" style="stop-color:#22B573"/>
			<stop  offset="0.2846" style="stop-color:#06AB96"/>
			<stop  offset="0.3377" style="stop-color:#00A99D"/>
			<stop  offset="0.5952" style="stop-color:#00A99D"/>
			<stop  offset="1" style="stop-color:#228589;stop-opacity:0.9"/>
		</linearGradient>
		<polygon class="st16" points="594.07,106.7 606.25,161.16 567.16,173.39 		"/>
		<linearGradient id="SVGID_13_" gradientUnits="userSpaceOnUse" x1="597.8016" y1="128.5412" x2="644" y2="128.5412">
			<stop  offset="0" style="stop-color:#00A99D"/>
			<stop  offset="0.2672" style="stop-color:#21B574;stop-opacity:0.84"/>
			<stop  offset="0.5979" style="stop-color:#228589;stop-opacity:0.78"/>
			<stop  offset="0.8226" style="stop-color:#22A27C;stop-opacity:0.9029"/>
			<stop  offset="1" style="stop-color:#22B573"/>
		</linearGradient>
		<polygon class="st17" points="644,94.92 597.8,124.37 606.25,162.16 		"/>
		<polygon class="st1" points="0.44,173.39 109.43,252.3 149,128.37 		"/>
		<polygon class="st14" points="281.12,167.28 109.43,252.3 149,128.37 		"/>
		<polygon class="st0" points="344.47,336 281.12,167.28 407.76,178.95 		"/>
		<polygon class="st0" points="0.44,173.39 0.44,344 109.43,252.3 		"/>
		<polygon class="st18" points="407.76,178.95 344.47,336 559.98,191.17 		"/>
		<polygon class="st6" points="109.43,252.3 251.29,233.96 281.12,167.28 		"/>
		<polygon class="st1" points="344.47,336 281.12,167.28 251.29,233.96 		"/>
		<linearGradient id="SVGID_14_" gradientUnits="userSpaceOnUse" x1="0" y1="201.5" x2="237.8659" y2="201.5">
			<stop  offset="0" style="stop-color:#CCCCCC;stop-opacity:0.32"/>
			<stop  offset="1" style="stop-color:#CCCCCC;stop-opacity:0.05"/>
		</linearGradient>
		<polygon class="st19" points="95.15,59 0,344 118.05,73 237.87,236 176.2,244 		"/>
		<linearGradient id="SVGID_15_" gradientUnits="userSpaceOnUse" x1="209.6744" y1="186" x2="399.9672" y2="186">
			<stop  offset="0" style="stop-color:#CCCCCC;stop-opacity:0.32"/>
			<stop  offset="1" style="stop-color:#CCCCCC;stop-opacity:0.05"/>
		</linearGradient>
		<polygon class="st20" points="209.67,74 209.67,74 233.46,73 399.97,299 281.03,264 		"/>
		<linearGradient id="SVGID_16_" gradientUnits="userSpaceOnUse" x1="265.1765" y1="139.5" x2="488.0657" y2="139.5">
			<stop  offset="1.009179e-07" style="stop-color:#CCCCCC;stop-opacity:0.18"/>
			<stop  offset="1" style="stop-color:#CCCCCC;stop-opacity:0.05"/>
		</linearGradient>
		<polygon class="st21" points="265.18,47 276.63,38 369.13,99 488.07,214 407.9,241 		"/>
	</g>
	<g>
		<polygon class="st1" points="1363.39,766.43 1242.36,692.26 1363.88,693.07 		"/>
		<polygon class="st2" points="1210.61,637.03 1242.36,692.26 1363.88,693.07 		"/>
		<polygon class="st0" points="1122.72,691.47 1242.36,692.26 1210.61,637.03 		"/>
		<polygon class="st14" points="1035.38,759.24 1122.72,691.47 982.48,664.97 		"/>
		<polygon class="st1" points="859.97,718.62 982.48,664.97 943.34,584.68 		"/>
		<polygon class="st6" points="1364.55,593.04 1363.88,693.07 1210.61,637.03 		"/>
		<polygon class="st2" points="1074.23,597.22 1122.72,691.47 982.48,664.97 		"/>
		<polygon class="st1" points="1210.61,637.03 1074.23,597.22 1122.72,691.47 		"/>
		<polygon class="st6" points="982.48,664.97 1074.23,597.22 943.34,584.68 		"/>
		<polygon class="st2" points="859.97,718.62 831.53,662.02 786.01,571.41 943.34,584.68 		"/>
		
			<linearGradient id="SVGID_17_" gradientUnits="userSpaceOnUse" x1="351.3591" y1="620.7686" x2="440.5119" y2="620.7686" gradientTransform="matrix(-0.9111 -6.064182e-03 6.655942e-03 -1 1147.6603 1239.8934)">
			<stop  offset="2.645906e-03" style="stop-color:#228589;stop-opacity:0.9"/>
			<stop  offset="0.1486" style="stop-color:#129693;stop-opacity:0.9436"/>
			<stop  offset="0.3377" style="stop-color:#00A99D"/>
			<stop  offset="0.5952" style="stop-color:#00A99D"/>
			<stop  offset="0.873" style="stop-color:#22B573"/>
		</linearGradient>
		<polygon class="st22" points="750.19,655.64 831.37,662.3 786.01,571.41 		"/>
		
			<linearGradient id="SVGID_18_" gradientUnits="userSpaceOnUse" x1="409.9577" y1="614.9333" x2="454.334" y2="614.9333" gradientTransform="matrix(-0.9111 -6.064182e-03 6.655942e-03 -1 1147.6603 1239.8934)">
			<stop  offset="0" style="stop-color:#22B573"/>
			<stop  offset="0.2846" style="stop-color:#06AB96"/>
			<stop  offset="0.3377" style="stop-color:#00A99D"/>
			<stop  offset="0.5952" style="stop-color:#00A99D"/>
			<stop  offset="1" style="stop-color:#228589;stop-opacity:0.9"/>
		</linearGradient>
		<polygon class="st23" points="750.19,655.64 737.96,601.1 778.47,589.14 		"/>
		
			<linearGradient id="SVGID_19_" gradientUnits="userSpaceOnUse" x1="444.7432" y1="603.4293" x2="497.1827" y2="603.4293" gradientTransform="matrix(-0.9111 -6.064182e-03 6.655942e-03 -1 1147.6603 1239.8934)">
			<stop  offset="0" style="stop-color:#00A99D"/>
			<stop  offset="0.2672" style="stop-color:#21B574;stop-opacity:0.84"/>
			<stop  offset="0.5979" style="stop-color:#228589;stop-opacity:0.78"/>
			<stop  offset="0.8226" style="stop-color:#22A27C;stop-opacity:0.9029"/>
			<stop  offset="1" style="stop-color:#22B573"/>
		</linearGradient>
		<polygon class="st24" points="698.48,667.08 746.45,637.95 737.97,600.1 		"/>
		<polygon class="st1" points="1364.55,593.04 1252.36,513.38 1210.61,637.03 		"/>
		<polygon class="st14" points="1074.23,597.22 1252.36,513.38 1210.61,637.03 		"/>
		<polygon class="st0" points="1009.85,428.07 1074.23,597.22 943.34,584.68 		"/>
		<polygon class="st0" points="1364.55,593.04 1365.68,422.44 1252.36,513.38 		"/>
		<polygon class="st18" points="943.34,584.68 1009.85,428.07 786.01,571.41 		"/>
		<polygon class="st6" points="1252.36,513.38 1105.53,530.74 1074.23,597.22 		"/>
		<polygon class="st1" points="1009.85,428.07 1074.23,597.22 1105.53,530.74 		"/>
		
			<linearGradient id="SVGID_20_" gradientUnits="userSpaceOnUse" x1="-233.8173" y1="676.3881" x2="36.1827" y2="676.3881" gradientTransform="matrix(-0.9111 -6.064182e-03 6.655942e-03 -1 1147.6603 1239.8934)">
			<stop  offset="0" style="stop-color:#CCCCCC;stop-opacity:0.32"/>
			<stop  offset="1" style="stop-color:#CCCCCC;stop-opacity:0.05"/>
		</linearGradient>
		<polygon class="st25" points="1265.84,706.78 1366.14,422.44 1242.25,692.62 1119.43,528.8 1183.26,521.22 		"/>
		
			<linearGradient id="SVGID_21_" gradientUnits="userSpaceOnUse" x1="4.1827" y1="660.8881" x2="220.1827" y2="660.8881" gradientTransform="matrix(-0.9111 -6.064182e-03 6.655942e-03 -1 1147.6603 1239.8934)">
			<stop  offset="0" style="stop-color:#CCCCCC;stop-opacity:0.32"/>
			<stop  offset="1" style="stop-color:#CCCCCC;stop-opacity:0.05"/>
		</linearGradient>
		<polygon class="st26" points="1147.5,690.99 1147.5,690.99 1122.9,691.83 952.21,464.68 1074.97,500.5 		"/>
		
			<linearGradient id="SVGID_22_" gradientUnits="userSpaceOnUse" x1="67.1827" y1="614.3881" x2="320.1827" y2="614.3881" gradientTransform="matrix(-0.9111 -6.064182e-03 6.655942e-03 -1 1147.6603 1239.8934)">
			<stop  offset="1.009179e-07" style="stop-color:#CCCCCC;stop-opacity:0.18"/>
			<stop  offset="1" style="stop-color:#CCCCCC;stop-opacity:0.05"/>
		</linearGradient>
		<polygon class="st27" points="1089.93,717.61 1078.02,726.53 982.76,664.89 860.53,549.08 943.62,522.63 		"/>
	</g>
	
		<linearGradient id="SVGID_23_" gradientUnits="userSpaceOnUse" x1="606" y1="185.5" x2="650" y2="185.5" gradientTransform="matrix(0.8518 0.5239 -0.5239 0.8518 190.2916 -301.5376)">
		<stop  offset="2.645906e-03" style="stop-color:#228589;stop-opacity:0.9"/>
		<stop  offset="0.1486" style="stop-color:#129693;stop-opacity:0.9436"/>
		<stop  offset="0.3377" style="stop-color:#00A99D"/>
		<stop  offset="0.5952" style="stop-color:#00A99D"/>
		<stop  offset="0.873" style="stop-color:#22B573"/>
	</linearGradient>
	<polygon class="st28" points="638.22,168.89 599.04,190.58 644.9,200.01 	"/>
	
		<linearGradient id="SVGID_24_" gradientUnits="userSpaceOnUse" x1="644.4817" y1="137.1147" x2="706.4817" y2="137.1147" gradientTransform="matrix(0.798 0.6027 -0.6027 0.798 219.6296 -378.0288)">
		<stop  offset="0" style="stop-color:#22B573"/>
		<stop  offset="0.2846" style="stop-color:#06AB96"/>
		<stop  offset="0.3377" style="stop-color:#00A99D"/>
		<stop  offset="0.5952" style="stop-color:#00A99D"/>
		<stop  offset="1" style="stop-color:#228589;stop-opacity:0.9"/>
	</linearGradient>
	<polygon class="st29" points="689.54,125.55 632.88,144.15 719.12,132.85 	"/>
	<linearGradient id="SVGID_25_" gradientUnits="userSpaceOnUse" x1="687" y1="98.5" x2="709" y2="98.5">
		<stop  offset="0" style="stop-color:#00A99D"/>
		<stop  offset="0.2672" style="stop-color:#21B574;stop-opacity:0.84"/>
		<stop  offset="0.5979" style="stop-color:#228589;stop-opacity:0.78"/>
		<stop  offset="0.8226" style="stop-color:#22A27C;stop-opacity:0.9029"/>
		<stop  offset="1" style="stop-color:#22B573"/>
	</linearGradient>
	<polygon class="st30" points="687,85 694,112 709,98 	"/>
	<linearGradient id="SVGID_26_" gradientUnits="userSpaceOnUse" x1="445" y1="703" x2="476" y2="703">
		<stop  offset="2.645906e-03" style="stop-color:#228589;stop-opacity:0.9"/>
		<stop  offset="0.1486" style="stop-color:#129693;stop-opacity:0.9436"/>
		<stop  offset="0.3377" style="stop-color:#00A99D"/>
		<stop  offset="0.5952" style="stop-color:#00A99D"/>
		<stop  offset="0.873" style="stop-color:#22B573"/>
	</linearGradient>
	<polygon class="st31" points="452,677 445,729 476,677 	"/>
	<linearGradient id="SVGID_27_" gradientUnits="userSpaceOnUse" x1="445" y1="748" x2="502" y2="748">
		<stop  offset="2.645906e-03" style="stop-color:#228589;stop-opacity:0.9"/>
		<stop  offset="0.1486" style="stop-color:#129693;stop-opacity:0.9436"/>
		<stop  offset="0.3377" style="stop-color:#00A99D"/>
		<stop  offset="0.5952" style="stop-color:#00A99D"/>
		<stop  offset="0.873" style="stop-color:#22B573"/>
	</linearGradient>
	<polygon class="st32" points="445,759 502,746 461,737 	"/>
	<linearGradient id="SVGID_28_" gradientUnits="userSpaceOnUse" x1="709" y1="696" x2="738" y2="696">
		<stop  offset="2.645906e-03" style="stop-color:#228589;stop-opacity:0.9"/>
		<stop  offset="0.1486" style="stop-color:#129693;stop-opacity:0.9436"/>
		<stop  offset="0.3377" style="stop-color:#00A99D"/>
		<stop  offset="0.5952" style="stop-color:#00A99D"/>
		<stop  offset="0.873" style="stop-color:#22B573"/>
	</linearGradient>
	<polygon class="st33" points="709,685 738,665 709,727 	"/>
	<linearGradient id="SVGID_29_" gradientUnits="userSpaceOnUse" x1="949" y1="38" x2="982" y2="38">
		<stop  offset="2.645906e-03" style="stop-color:#228589;stop-opacity:0.9"/>
		<stop  offset="0.1486" style="stop-color:#129693;stop-opacity:0.9436"/>
		<stop  offset="0.3377" style="stop-color:#00A99D"/>
		<stop  offset="0.5952" style="stop-color:#00A99D"/>
		<stop  offset="0.873" style="stop-color:#22B573"/>
	</linearGradient>
	<polygon class="st34" points="949,21 958,55 982,37 	"/>
	<linearGradient id="SVGID_30_" gradientUnits="userSpaceOnUse" x1="882" y1="64" x2="898" y2="64">
		<stop  offset="2.645906e-03" style="stop-color:#228589;stop-opacity:0.9"/>
		<stop  offset="0.1486" style="stop-color:#129693;stop-opacity:0.9436"/>
		<stop  offset="0.3377" style="stop-color:#00A99D"/>
		<stop  offset="0.5952" style="stop-color:#00A99D"/>
		<stop  offset="0.873" style="stop-color:#22B573"/>
	</linearGradient>
	<polygon class="st35" points="898,37 887,107 882,21 	"/>
	<linearGradient id="SVGID_31_" gradientUnits="userSpaceOnUse" x1="-4" y1="291" x2="317.1566" y2="291">
		<stop  offset="0" style="stop-color:#CCCCCC;stop-opacity:0.66"/>
		<stop  offset="1" style="stop-color:#CCCCCC;stop-opacity:0.05"/>
	</linearGradient>
	<path class="st36" d="M-4,349c37-38,77.67-61.33,114-98l142-18l65.16,71C211.77,323,101.39,330-4,349z"/>
	<linearGradient id="SVGID_32_" gradientUnits="userSpaceOnUse" x1="1016.6826" y1="307.4425" x2="1366" y2="307.4425">
		<stop  offset="0" style="stop-color:#CCCCCC;stop-opacity:0.66"/>
		<stop  offset="1" style="stop-color:#CCCCCC;stop-opacity:0.05"/>
	</linearGradient>
	<polygon class="st37" points="1016.68,192.89 1366,422 1365,390 1310.89,262.97 1153,204 	"/>
</g>
</svg>
